<?xml version="1.0" encoding="UTF-8" standalone="no"?>
<svg width="583px" height="583px" viewBox="0 0 583 583" version="1.1" xmlns="http://www.w3.org/2000/svg" xmlns:xlink="http://www.w3.org/1999/xlink">
    <!-- Generator: Sketch 3.8.3 (29802) - http://www.bohemiancoding.com/sketch -->
    <title>Group</title>
    <desc>Created with Sketch.</desc>
    <defs></defs>
    <g id="Page-1" stroke="none" stroke-width="1" fill="none" fill-rule="evenodd">
        <g id="MARCA_JORNAL_DO_ALMOCO_02" transform="translate(-1.000000, 0.000000)" fill="#FFFFFF">
            <g id="Group">
                <g id="Layer_2" transform="translate(0.565217, 0.231156)">
                    <g id="Group">
                        <path d="M291.952174,0.223115578 C131.352174,0.223115578 0.904347826,130.434171 0.904347826,291.451256 C0.904347826,452.150754 131.034783,582.679397 291.952174,582.679397 C452.552174,582.679397 583,452.468342 583,291.451256 C583,130.434171 452.552174,0.223115578 291.952174,0.223115578 L291.952174,0.223115578 Z M159.282609,452.468342 L110.721739,452.468342 L118.33913,368.942714 C165.947826,368.942714 172.613043,326.703518 172.613043,326.703518 L185.626087,185.694472 L173.247826,185.694472 L178.96087,130.751759 L272.908696,130.751759 L261.8,255.881407 L210.7,399.113568 L243.391304,399.113568 C219.269565,455.326633 159.282609,452.468342 159.282609,452.468342 L159.282609,452.468342 Z M417.004348,389.58593 L399.547826,338.136683 L318.930435,338.136683 L301.473913,389.58593 L225.3,389.58593 L316.391304,129.798995 L383.995652,129.798995 C402.404348,129.798995 411.608696,151.394975 411.608696,151.394975 L492.226087,389.58593 L417.004348,389.58593 L417.004348,389.58593 Z" id="Shape"></path>
                        <polygon id="Shape" points="337.973913 283.19397 381.13913 283.19397 359.556522 218.723618"></polygon>
                    </g>
                </g>
            </g>
        </g>
    </g>
</svg>