<svg width="382" height="220" viewBox="0 0 400 210" xmlns="http://www.w3.org/2000/svg"><g fill="none" fill-rule="evenodd"><path d="M11.6 156.7a5 5 0 0 0-1 1.7 8.5 8.5 0 0 0-.6 2 25.6 25.6 0 0 0-.4 4.6v1.7l-.1.9a3365 3365 0 0 0 0 1.7l-.1 1v1.7l-.1.8v1.8a127.5 127.5 0 0 0 0 1.7l-.1.8v5.1l-.1.8v11.5l-.1 1v7.8a81 81 0 0 0 .1 3.4v.7a68.6 68.6 0 0 0 .8 4.9 8.5 8.5 0 0 0 1 2.3 6.3 6.3 0 0 0 1.6 1.5 7.7 7.7 0 0 0 1.6 1 11.3 11.3 0 0 0 5.5.9 22.4 22.4 0 0 0 4.5-.5 72.5 72.5 0 0 0 10-2.2 213 213 0 0 0 22.7-7.4A132 132 0 0 0 85 191.7a108 108 0 0 0 17.5-17.5 96.6 96.6 0 0 0 17.7-36.9 119 119 0 0 0 3.5-19.9 153 153 0 0 0 1-16.6v-3.2l.1-3.3V65.4l.1-3.1V37.4a1397 1397 0 0 1 0-5.7v-2.6a16487.2 16487.2 0 0 1 0-4.8v-4.1l.1-1.6v-2.3a55.2 55.2 0 0 0-.3-3.7 11.5 11.5 0 0 0-.4-1l-.2-.5a14.1 14.1 0 0 0-.9-1.6 7.7 7.7 0 0 0-1.3-1.4 7.8 7.8 0 0 0-1.6-1 10.7 10.7 0 0 0-5.2-1.2H62.4a14.6 14.6 0 0 0-2.2.3 8.3 8.3 0 0 0-1.5.4A11.8 11.8 0 0 0 56 8.4a7.4 7.4 0 0 0-2 2.7 13 13 0 0 0-1 4 18.5 18.5 0 0 0-.1 1.4V94a55249.4 55249.4 0 0 1 0 8.9v2.6a390.5 390.5 0 0 1-.5 11 37.2 37.2 0 0 1-7.2 18.3A56 56 0 0 1 38 143a40.7 40.7 0 0 1-11 7.2 73 73 0 0 1-5 2.1l-1 .4-1.1.4-1 .3-.8.3-.7.3-.7.2-.6.2-.5.2-.4.1-.5.2-.4.1-.4.2a10.2 10.2 0 0 0-.7.4l-.4.2a6.8 6.8 0 0 0-1.2 1m286.7-40.3l-.3-.1-.3-.3a10 10 0 0 1-.9-1.3 120.6 120.6 0 0 1-1.5-2.5l-1.1-1.7-1.4-2.2-1.5-2.4-1.8-2.8-1.9-3-2-3.3-2.1-3.3-2.2-3.5a3109 3109 0 0 1-4.4-7l-2.2-3.5-2.2-3.4-2.1-3.5a3536.2 3536.2 0 0 0-4.2-6.6l-2-3.2-2-3-1.8-3-1.8-2.9-1.7-2.8a3877.3 3877.3 0 0 0-3.3-5.3l-1.7-2.6-1.6-2.5-1.6-2.6-1.6-2.5-1.6-2.5-1.5-2.5-1.6-2.4a245 245 0 0 0-7-10.1 49.2 49.2 0 0 0-6-6A22.9 22.9 0 0 0 220 8a32.5 32.5 0 0 0-7.4-1.1 67 67 0 0 0-8-.2H162a28.1 28.1 0 0 0-2.8.3 15.8 15.8 0 0 0-2.3.9 9 9 0 0 0-2.2 1.4 6.5 6.5 0 0 0-1.1 1.6 8.5 8.5 0 0 0-.8 1.7 10.4 10.4 0 0 0-.7 3.3 28 28 0 0 0 0 1.3v191.6a22.3 22.3 0 0 0 .4 3.1 11.7 11.7 0 0 0 1.4 3.5 7.7 7.7 0 0 0 1.3 1.4 9.4 9.4 0 0 0 5.2 2 13.4 13.4 0 0 0 1.2.2h.6a77.2 77.2 0 0 0 1.6 0H213a102.7 102.7 0 0 0 1.5 0h.6a13.9 13.9 0 0 0 4-1 10.5 10.5 0 0 0 2.2-1.2 7 7 0 0 0 2.2-3.1 11.7 11.7 0 0 0 1-4.4V107.7a30.3 30.3 0 0 1 .1-2l.2-.2.3.1.3.3a11.3 11.3 0 0 1 .9 1.3l.7 1 .8 1.5 1.1 1.7 1.4 2.2 1.5 2.4 1.8 2.8 1.9 3 2 3.3 2.1 3.3 2.2 3.5 2.2 3.5 2.2 3.5 2.2 3.5 2.2 3.4 2.1 3.5 2.1 3.3 2 3.3 2 3.2 2 3 1.9 3 1.8 2.9a2084.5 2084.5 0 0 0 6.7 10.7l1.6 2.5 1.6 2.6 1.6 2.5a453.2 453.2 0 0 0 11.8 17.5 48.3 48.3 0 0 0 6 6 22.8 22.8 0 0 0 9.2 4.1 36.2 36.2 0 0 0 9 1.2 83.6 83.6 0 0 0 6.3.1h41.4a95 95 0 0 0 3.7-.2l.5-.1a10.4 10.4 0 0 0 4.5-2.3 6.8 6.8 0 0 0 1.1-1.6 7.3 7.3 0 0 0 .6-1 12 12 0 0 0 .9-4.6V12.7a15.4 15.4 0 0 0-.7-3.8 11.6 11.6 0 0 0-1.1-2.3 6.5 6.5 0 0 0-1.8-1.8 8 8 0 0 0-1.7-.9 10.2 10.2 0 0 0-3-.8 11.3 11.3 0 0 0-1.8 0L360 3h-50.7a39.8 39.8 0 0 0-3.6.3 10.1 10.1 0 0 0-4.8 2.8 7 7 0 0 0-1 1.6 8.3 8.3 0 0 0-.7 1.8 9.9 9.9 0 0 0-.5 2.2 16.7 16.7 0 0 0 0 1v101.6a22 22 0 0 1-.2 2l-.2.2" fill="#FFF"/><path d="M7 158.5a3.4 3.4 0 0 0-1 1.6 6.3 6.3 0 0 0-.2 1 13.4 13.4 0 0 0-.3 1.9 28.6 28.6 0 0 0-.1 1.5v.8l-.1.9v.9l-.5 11.5-.2 21.8.1 6.6a75.7 75.7 0 0 0 0 2l.1.7a77.7 77.7 0 0 0 .7 4.7 8 8 0 0 0 .7 1.7 5.6 5.6 0 0 0 2.5 2.1 10 10 0 0 0 4.6 1.2 19.3 19.3 0 0 0 3.8-.3 58.7 58.7 0 0 0 9.1-1.8 191.3 191.3 0 0 0 36.2-12.5 119.8 119.8 0 0 0 31.5-22.9 98.9 98.9 0 0 0 26-51.3 150.1 150.1 0 0 0 3.2-30.6 397.5 397.5 0 0 0 0-6.7v-5.6l.3-73.6v-1.2a58 58 0 0 0-.4-3.3v-.4l-.3-.5a10.4 10.4 0 0 0-1-2 5.6 5.6 0 0 0-2-1.7 10 10 0 0 0-2-1h-.5a8.2 8.2 0 0 0-1.3-.3H59.8a55.4 55.4 0 0 0-3 .3 12.6 12.6 0 0 0-2.5 1A8.3 8.3 0 0 0 53 6.2a6.4 6.4 0 0 0-1 1.5 12.1 12.1 0 0 0-1.1 2.6l-.1.4a5.4 5.4 0 0 0-.2 1.2 17 17 0 0 0 0 1.4V93a857.8 857.8 0 0 1-.5 21.9 43.1 43.1 0 0 1-2.6 11.2 46.1 46.1 0 0 1-17.3 21.7 42.9 42.9 0 0 1-10.2 5.4 75 75 0 0 1-3.7 1.5l-1.1.4-1 .3-1 .3-2.5.9a32.2 32.2 0 0 0-1.7.6l-.3.2a19.3 19.3 0 0 0-1.5.9l-.2.2m6.7 63.5h-.4a14.6 14.6 0 0 1-5.2-1.1 10.6 10.6 0 0 1-3.4-2.4 8 8 0 0 1-1.7-3.3 11.3 11.3 0 0 1-.5-2v-.6a35.6 35.6 0 0 1-.3-2.8v-.7l-.1-.7V207l-.1-6.6.2-23.6.4-9.9v-.8a1133.7 1133.7 0 0 1 .6-5.6 11.8 11.8 0 0 1 .7-2.2 6 6 0 0 1 1.2-1.7 5.4 5.4 0 0 1 .7-.6 7.5 7.5 0 0 1 1.3-.8 10.5 10.5 0 0 1 1.3-.6l.5-.2.4-.1.5-.2 2.6-.9a136.3 136.3 0 0 0 11.7-4.7 48.3 48.3 0 0 0 16.7-15.3 41.6 41.6 0 0 0 7-23.7 282.6 282.6 0 0 0 .1-16.5V14.2a170.7 170.7 0 0 1 .3-4.3 12.1 12.1 0 0 1 .3-1l.2-.6A14.7 14.7 0 0 1 50.5 5a8 8 0 0 1 2.4-2.2A12 12 0 0 1 59.2 1h55.2a60 60 0 0 1 3.1.3 12 12 0 0 1 2.8 1 16 16 0 0 1 2 1.2 8 8 0 0 1 2.3 3 12.7 12.7 0 0 1 1.4 4.7 26.6 26.6 0 0 1 0 1.7V14l-.2 73.7V90a654.2 654.2 0 0 1-.5 20.3 189.1 189.1 0 0 1-2.8 20.8 132.5 132.5 0 0 1-7 22.8A108.2 108.2 0 0 1 98 181.3a96.3 96.3 0 0 1-17 15.3 119 119 0 0 1-30.5 16.2 144.4 144.4 0 0 1-17.4 5.5 227 227 0 0 1-15.6 3.4 42 42 0 0 1-3.8.3" fill="#FFF"/><path d="M14.7 222.4h50.6a68.2 68.2 0 0 0 3.4-.4 10.7 10.7 0 0 0 3.2-1.3 7.6 7.6 0 0 0 .8-.6 5.4 5.4 0 0 0 1-1.4 8.6 8.6 0 0 0 1-2.6 13.5 13.5 0 0 0 .3-1.5V111a172 172 0 0 1 .2-4c0-.1 0-.3.2-.5 0-.2.2-.5.4-.6.4-.3.9-.5 1.3-.4l.8.5.4.4a11.1 11.1 0 0 1 1 1.5l.8 1.1.8 1.3 50 79.5 1.4 2.1a689.6 689.6 0 0 0 9 13.6 66 66 0 0 0 6.2 6.8 22 22 0 0 0 10.2 4.9 30.2 30.2 0 0 0 5.9 1 56.5 56.5 0 0 0 8 .2h45.1a37.4 37.4 0 0 0 2.4 0l.5-.2a8.9 8.9 0 0 0 2-.6 9.3 9.3 0 0 0 2-1.1 5 5 0 0 0 1-1.2 6.9 6.9 0 0 0 .9-1.5 10.5 10.5 0 0 0 .8-4.9v-197a21.4 21.4 0 0 0 0-1v-.5a15.5 15.5 0 0 0-.6-2.6 9.1 9.1 0 0 0-1.3-2.4 5.4 5.4 0 0 0-1.7-1.4 10 10 0 0 0-4.9-1.3 21.9 21.9 0 0 0-2.2 0h-52.3a28.8 28.8 0 0 0-2.7.3 13.5 13.5 0 0 0-2.6 1 9.6 9.6 0 0 0-1.3 1 6.2 6.2 0 0 0-1.3 1.8 9 9 0 0 0-.8 2.6 7.4 7.4 0 0 0-.2 1v.5a14.1 14.1 0 0 0 0 1v102.3a124.2 124.2 0 0 1-.4 4.3c0 .3-.2.5-.5.7-.3.3-.8.4-1.2.3-.3 0-.6-.2-.8-.4l-.5-.5a10.4 10.4 0 0 1-1-1.5l-.7-1-.9-1.5-49.7-79-1.6-2.5A518.1 518.1 0 0 0 88 19.5a68 68 0 0 0-6.1-6.8 22.8 22.8 0 0 0-11.6-5.2 40.8 40.8 0 0 0-9.2-.9 113 113 0 0 0-5 0H12.7a37.4 37.4 0 0 0-3.3.3 10.1 10.1 0 0 0-3.5 1.6 5 5 0 0 0-1.1 1.2 8.2 8.2 0 0 0-1.2 2.6 13.9 13.9 0 0 0-.4 2.5A27.7 27.7 0 0 0 3 16v198.5a10.7 10.7 0 0 0 1.6 4.6 6.1 6.1 0 0 0 1.5 1.5 9.1 9.1 0 0 0 4.8 1.6 23.8 23.8 0 0 0 2 0h1.7zM64 225H13.7a90.9 90.9 0 0 1-4.3-.3 14 14 0 0 1-4.7-1.8 8.3 8.3 0 0 1-3-3.5 15.1 15.1 0 0 1-1-3.3 13 13 0 0 1-.2-1.2v-.6a14 14 0 0 1 0-1.6V16.8a99.6 99.6 0 0 1 .2-4 16.3 16.3 0 0 1 1-3.3 10 10 0 0 1 2.4-3 10.1 10.1 0 0 1 4-2 13 13 0 0 1 3.8-.6 28.9 28.9 0 0 1 1.5 0h46.1a155.2 155.2 0 0 1 9.7.8 40.6 40.6 0 0 1 9 2.6 26.3 26.3 0 0 1 10.5 8.9 76.3 76.3 0 0 1 5.8 8 379.7 379.7 0 0 1 3.2 5l1.6 2.5 1.7 2.6 49.6 78.9 1 1.4.1.3V11.3a14.2 14.2 0 0 1 2.1-7 9.3 9.3 0 0 1 1.6-1.7A9 9 0 0 1 158 1a12.7 12.7 0 0 1 4.6-1 34.6 34.6 0 0 1 1.4 0h51.6a61.8 61.8 0 0 1 5 .4 13.3 13.3 0 0 1 4 1.7 9 9 0 0 1 2.3 2.2 11 11 0 0 1 1.8 4.6 18.5 18.5 0 0 1 .2 2.4V209a76.5 76.5 0 0 1-.3 3.9 13.2 13.2 0 0 1-1.7 3.9 8.4 8.4 0 0 1-3.6 3 12.5 12.5 0 0 1-4.5 1.2h-1.3a75.2 75.2 0 0 1-1.5 0h-42.8a249 249 0 0 1-11.5-.4 60.6 60.6 0 0 1-7.7-1.7 28.5 28.5 0 0 1-8.2-4.6 29.8 29.8 0 0 1-5.1-5.4 76.4 76.4 0 0 1-5.9-8.1 238.8 238.8 0 0 1-3.1-5c-.6-.7-1.1-1.6-1.7-2.5l-1.3-2.1-50-79.5-.9-1.3-.1-.3v103.7a18.6 18.6 0 0 1-.8 4.2 12.6 12.6 0 0 1-1.3 2.7 9.7 9.7 0 0 1-1.6 1.7 8.5 8.5 0 0 1-2 1.3 12.6 12.6 0 0 1-4.5 1.2h-.7a25 25 0 0 1-2.2.1H64z" fill="#FFF" mask="url(#b)" transform="translate(150 -1)"/></g></svg>